<svg version="1.1" xmlns="http://www.w3.org/2000/svg" xmlns:xlink="http://www.w3.org/1999/xlink" x="0px" y="0px" width="22px" height="20px" viewBox="0 0 22 20" xml:space="preserve" style="">
	<path d="M22.3,2.9c-0.8,0.4-1.7,0.6-2.7,0.7c1-0.6,1.7-1.5,2-2.6c-0.9,0.5-1.9,0.9-2.9,1.1c-0.8-0.9-2-1.5-3.4-1.5
		c-2.6,0-4.6,2.1-4.6,4.7c0,0.4,0,0.7,0.1,1.1C7,6.3,3.6,4.4,1.3,1.6C0.9,2.3,0.7,3.1,0.7,3.9c0,1.6,0.8,3.1,2.1,3.9
		C2,7.8,1.2,7.6,0.6,7.2c0,0,0,0,0,0.1c0,2.3,1.6,4.2,3.7,4.6c-0.4,0.1-0.8,0.2-1.2,0.2c-0.3,0-0.6,0-0.9-0.1
		c0.6,1.9,2.3,3.2,4.3,3.3c-1.6,1.3-3.6,2-5.8,2c-0.4,0-0.7,0-1.1-0.1c2.1,1.3,4.5,2.1,7.1,2.1c8.5,0,13.2-7.2,13.2-13.4
		c0-0.2,0-0.4,0-0.6C20.9,4.7,21.7,3.8,22.3,2.9z">
	</path>
</svg>
